<?xml version="1.0" encoding="UTF-8"?><svg id="Layer_1" xmlns="http://www.w3.org/2000/svg" viewBox="0 0 541.04 416.55"><defs><style>.cls-1{fill:none;stroke:#231f20;stroke-linecap:round;stroke-miterlimit:10;}</style></defs><line class="cls-1" x1="73.5" y1="285.32" x2="260.01" y2="393"/><line class="cls-1" x1="246.65" y1="192.17" x2="535.33" y2="358.83"/><line class="cls-1" x1="154.27" y1="13.55" x2="540.54" y2="236.56"/><line class="cls-1" x1=".5" y1="124.12" x2="209.38" y2="244.72"/><line class="cls-1" x1="217.14" y1="153.23" x2="505.82" y2="319.9"/><line class="cls-1" x1="155.98" y1="247.28" x2="394.76" y2="385.14"/><line class="cls-1" x1="364.68" y1="349.57" x2="479.82" y2="416.05"/><line class="cls-1" x1="247.04" y1="320.05" x2="283.62" y2="341.17"/><circle class="cls-1" cx="137.42" cy="236.56" r="8.16"/><circle class="cls-1" cx="139.46" cy="284.72" r="2.04"/><circle class="cls-1" cx="267.69" cy="264.56" r="7.68"/><circle class="cls-1" cx="317.98" cy="176.03" r="5.31"/><circle class="cls-1" cx="154.27" cy="312.73" r="3.47"/><circle class="cls-1" cx="61.66" cy="322.84" r="3.47"/><circle class="cls-1" cx="325.18" cy="195.45" r="3.47"/><path class="cls-1" d="m90.44,346.26l1.21,5.88c.1.48.43.89.89,1.08l5.53,2.34c1.15.48,1.24,2.07.16,2.69l-5.22,2.97c-.43.24-.71.68-.75,1.18l-.51,5.99c-.11,1.24-1.59,1.82-2.51.98l-4.44-4.05c-.37-.33-.87-.47-1.35-.35l-5.85,1.36c-1.21.28-2.22-.95-1.71-2.08l2.48-5.47c.2-.45.17-.97-.08-1.4l-3.1-5.14c-.64-1.07.22-2.41,1.45-2.27l5.97.67c.49.05.98-.14,1.3-.51l3.93-4.54c.81-.94,2.35-.54,2.61.68Z"/><path class="cls-1" d="m410.13,66.14l1.21,5.88c.1.48.43.89.89,1.08l5.53,2.34c1.15.48,1.24,2.07.16,2.69l-5.22,2.97c-.43.24-.71.68-.75,1.18l-.51,5.99c-.11,1.24-1.59,1.82-2.51.98l-4.44-4.05c-.37-.33-.87-.47-1.35-.35l-5.85,1.36c-1.21.28-2.22-.95-1.71-2.08l2.48-5.47c.2-.45.17-.97-.08-1.4l-3.1-5.14c-.64-1.07.22-2.41,1.45-2.27l5.97.67c.49.05.98-.14,1.3-.51l3.93-4.54c.81-.94,2.35-.54,2.61.68Z"/><path class="cls-1" d="m145.59,1.3l-.2,3c-.02.25.09.49.28.64l2.36,1.86c.49.39.32,1.16-.28,1.32l-2.91.74c-.24.06-.43.24-.52.47l-1.04,2.82c-.22.58-1.01.67-1.34.14l-1.6-2.54c-.13-.21-.36-.34-.61-.35l-3-.12c-.62-.02-.95-.75-.55-1.23l1.92-2.31c.16-.19.21-.45.15-.68l-.81-2.89c-.17-.6.42-1.13,1-.9l2.79,1.11c.23.09.49.06.69-.07l2.5-1.67c.52-.35,1.21.05,1.17.67Z"/><path class="cls-1" d="m374.36,213.86l-.04,4.22c0,.35.16.67.45.87l3.45,2.43c.72.5.54,1.61-.29,1.87l-4.03,1.26c-.33.1-.59.36-.69.7l-1.24,4.03c-.26.84-1.36,1.01-1.87.3l-2.45-3.44c-.2-.28-.53-.45-.88-.44l-4.22.06c-.87.01-1.38-.98-.86-1.68l2.52-3.39c.21-.28.26-.64.15-.97l-1.37-3.99c-.28-.83.51-1.62,1.33-1.34l4,1.34c.33.11.69.05.97-.16l3.38-2.53c.7-.52,1.7-.02,1.69.85Z"/><path class="cls-1" d="m219.4,341.39l-12.24,2.08c-.84.14-1.52-.68-1.23-1.48l4.32-11.64c.3-.8,1.35-.98,1.89-.32l7.92,9.56c.54.66.17,1.66-.67,1.8Z"/><path class="cls-1" d="m200.49,154.85l-11.79-9.64c-1.61-1.31-1.19-3.88.75-4.61l14.24-5.39c1.94-.73,3.95.91,3.62,2.96l-2.46,15.03c-.34,2.05-2.76,2.97-4.37,1.65Z"/><path class="cls-1" d="m288.58,72.49l-4.32-11.43c-.45-1.18.55-2.41,1.8-2.2l12.05,1.97c1.25.2,1.81,1.68,1.01,2.66l-7.73,9.45c-.8.98-2.36.72-2.81-.46Z"/><path class="cls-1" d="m58.99,113.75l-4.32-11.43c-.45-1.18.55-2.41,1.8-2.2l12.05,1.97c1.25.2,1.81,1.68,1.01,2.66l-7.73,9.45c-.8.98-2.36.72-2.81-.46Z"/></svg>