<?xml version="1.0" encoding="UTF-8"?><svg id="Layer_1" xmlns="http://www.w3.org/2000/svg" viewBox="0 0 262.86 251.01"><defs><style>.cls-1{fill:none;stroke:#000;stroke-miterlimit:10;stroke-width:2px;}</style></defs><path class="cls-1" d="m140.05,6.35l32.86,66.59c1.4,2.83,4.1,4.8,7.23,5.25l73.49,10.68c7.88,1.14,11.02,10.82,5.32,16.38l-53.18,51.83c-2.26,2.21-3.3,5.38-2.76,8.5l12.55,73.19c1.35,7.84-6.89,13.83-13.93,10.12l-65.73-34.56c-2.8-1.47-6.14-1.47-8.94,0l-65.73,34.56c-7.04,3.7-15.28-2.28-13.93-10.12l12.55-73.19c.53-3.11-.5-6.29-2.76-8.5L3.91,105.25c-5.7-5.56-2.55-15.23,5.32-16.38l73.49-10.68c3.13-.45,5.83-2.42,7.23-5.25L122.81,6.35c3.54-7.13,13.72-7.13,17.24,0Z"/></svg>