<?xml version="1.0" encoding="UTF-8"?><svg id="Layer_1" xmlns="http://www.w3.org/2000/svg" viewBox="0 0 47.63 45.75"><defs><style>.cls-1{fill:#231f20;stroke-width:0px;}</style></defs><path class="cls-1" d="m23.81,3c.31,0,1.07.09,1.48.92l3.76,7.62c1.11,2.26,3.27,3.82,5.76,4.18l8.41,1.22c.91.13,1.23.83,1.33,1.12.1.29.24,1.04-.42,1.69l-6.08,5.93c-1.8,1.76-2.62,4.29-2.2,6.77l1.44,8.37c.11.63-.13,1.07-.35,1.32-.32.38-.8.61-1.28.61-.26,0-.52-.07-.77-.2l-7.52-3.95c-1.09-.57-2.32-.88-3.56-.88s-2.47.3-3.56.88l-7.52,3.95c-.25.13-.51.2-.77.2-.48,0-.95-.23-1.28-.61-.22-.26-.45-.7-.35-1.32l1.44-8.37c.43-2.48-.4-5.01-2.2-6.77l-6.08-5.93c-.66-.64-.51-1.4-.42-1.69.1-.29.42-.99,1.33-1.12l8.41-1.22c2.49-.36,4.64-1.93,5.76-4.18l3.76-7.62c.41-.83,1.17-.92,1.48-.92m0-3c-1.66,0-3.31.86-4.17,2.59l-3.76,7.62c-.68,1.37-1.99,2.32-3.5,2.54l-8.41,1.22c-3.81.55-5.33,5.24-2.58,7.93l6.08,5.93c1.1,1.07,1.59,2.61,1.34,4.11l-1.44,8.37c-.52,3,1.87,5.44,4.58,5.44.71,0,1.45-.17,2.16-.54l7.52-3.95c.68-.36,1.42-.53,2.16-.53s1.49.18,2.16.53l7.52,3.95c.71.37,1.45.54,2.16.54,2.71,0,5.09-2.44,4.58-5.44l-1.44-8.37c-.26-1.51.24-3.05,1.34-4.11l6.08-5.93c2.76-2.69,1.24-7.37-2.58-7.93l-8.41-1.22c-1.51-.22-2.82-1.17-3.5-2.54l-3.76-7.62c-.85-1.73-2.51-2.59-4.17-2.59h0Z"/></svg>