<?xml version="1.0" encoding="UTF-8"?><svg id="Layer_1" xmlns="http://www.w3.org/2000/svg" viewBox="0 0 47.95 43.6"><defs><style>.cls-1{fill:#231f20;stroke-width:0px;}</style></defs><path class="cls-1" d="m23.98,3c1.74,0,3.3.9,4.17,2.41l16.15,27.98c.87,1.51.87,3.3,0,4.81-.87,1.51-2.43,2.41-4.17,2.41H7.82c-1.74,0-3.3-.9-4.17-2.41-.87-1.51-.87-3.3,0-4.81L19.81,5.41c.87-1.51,2.43-2.41,4.17-2.41m0-3c-2.63,0-5.26,1.3-6.76,3.91L1.06,31.89c-3.01,5.21.75,11.72,6.76,11.72h32.31c6.01,0,9.77-6.51,6.76-11.72L30.74,3.91c-1.5-2.6-4.13-3.91-6.76-3.91h0Z"/></svg>